<?xml version="1.0" encoding="utf-8"?>
<!-- Generator: Adobe Illustrator 22.1.0, SVG Export Plug-In . SVG Version: 6.00 Build 0)  -->
<svg version="1.1" id="Слой_1" xmlns="http://www.w3.org/2000/svg" xmlns:xlink="http://www.w3.org/1999/xlink" x="0px" y="0px"
	 viewBox="0 0 34 34" style="enable-background:new 0 0 34 34;" xml:space="preserve">
<style type="text/css">
	.st0{fill:#F96969;}
	.st1{fill:#FFFFFF;}
</style>
<path class="st0" d="M17,1C9.6,1,3.5,6.7,3.5,13.8c0,2.2,0.6,4.3,1.7,6.2c1.1,1.8,8.9,13,11.8,13c2.8-0.1,10.5-11,11.7-12.8
	c1.2-1.9,1.8-4.2,1.8-6.4C30.5,6.7,24.4,1,17,1z"/>
<path class="st1" d="M17,2c6.9,0,12.5,5.3,12.5,11.8c0,2.1-0.6,4.1-1.7,5.9c-2.2,3.5-9,12.3-10.8,12.4l0,0c-1.8,0-8.8-8.9-10.9-12.5
	c-1-1.7-1.6-3.6-1.6-5.7C4.5,7.3,10.1,2,17,2 M17,0C9,0,2.5,6.2,2.5,13.8c0,2.4,0.6,4.7,1.8,6.7s3.5,5.2,5.7,7.9
	c4.3,5.2,5.8,5.6,6.9,5.6l0,0H17c1,0,2.5-0.5,6.8-5.6c2.2-2.6,4.5-5.8,5.7-7.7c1.3-2.1,2-4.5,2-6.9C31.5,6.2,25,0,17,0L17,0z"/>
<g>
	<path class="st1" d="M21.3,13.6v4c0,0.5-0.4,1-0.9,1h-2.3v-3.6h-2.2v3.6h-2.3c-0.5,0-0.9-0.4-0.9-1v-4l3.9-3.9
		c0.2-0.2,0.7-0.2,0.9,0L21.3,13.6z"/>
	<path class="st1" d="M11.8,13.5c-0.2,0.2-0.5,0.2-0.7,0c-0.2-0.2-0.2-0.5,0-0.7l4.2-4.2c1-0.9,2.2-0.9,3.1,0l4.3,4.2
		c0.2,0.2,0.2,0.5,0,0.7c-0.2,0.2-0.5,0.2-0.7,0l-4.2-4.3c-0.5-0.4-1.3-0.5-1.8,0L11.8,13.5z"/>
</g>
</svg>
