<?xml version="1.0" encoding="utf-8"?>
<!-- Generator: Adobe Illustrator 22.1.0, SVG Export Plug-In . SVG Version: 6.00 Build 0)  -->
<svg version="1.1" id="Слой_1" xmlns="http://www.w3.org/2000/svg" xmlns:xlink="http://www.w3.org/1999/xlink" x="0px" y="0px"
	 viewBox="0 0 54 54" style="enable-background:new 0 0 54 54;" xml:space="preserve">
<style type="text/css">
	.st0{enable-background:new    ;}
	.st1{fill:#1DBC0C;}
	.st2{fill:#FFFFFF;}
</style>
<text transform="matrix(1 0 0 1 297.6377 420.9449)" style="font-family:'MyriadPro-Regular'; font-size:12px;">CCCCCC</text>
<g id="XMLID_481_">
	<path class="st1" d="M27,3C17.1,3,9,11.1,9,21c0,15,16.4,30,18,30c1.2,0,18-15,18-30C45,11.1,36.9,3,27,3z"/>
	<path class="st2" d="M27,52C24.4,52,8,36.3,8,21C8,10.5,16.5,2,27,2s19,8.5,19,19C46,36.2,29.1,52,27,52z M26.8,50L26.8,50L26.8,50
		z M27.2,50L27.2,50L27.2,50z M27,4c-9.4,0-17,7.6-17,17c0,13.5,14.2,27.6,17,28.9c2.4-1.4,17-15.2,17-28.9C44,11.6,36.4,4,27,4z"/>
</g>
<g>
	<g>
		<path class="st2" d="M22,21.8c0,0.9,0.7,1.6,1.6,1.6c0.9,0,1.6-0.7,1.6-1.6c0-0.9-0.7-1.6-1.6-1.6C22.7,20.2,22,20.9,22,21.8z
			 M29.9,25.1c-0.4-0.2-0.8-0.1-1,0.3c-1.1,1.8-3.1,2.9-5.2,2.9c-3.5,0-6.3-3-6.3-6.6c0.1-3.5,2.9-6.3,6.3-6.3
			c2.2,0,4.1,1.1,5.3,2.9c0.2,0.4,0.7,0.5,1.1,0.3c0.4-0.2,0.5-0.7,0.3-1.1c-1.4-2.3-3.9-3.7-6.6-3.7c-4.3,0-7.8,3.6-7.8,8.1
			s3.5,8.1,7.9,8.1c2.7,0,5.1-1.4,6.6-3.6C30.4,25.9,30.3,25.4,29.9,25.1z M26.5,20.6c0.2,0.4,0.6,0.6,1,0.4c0.3-0.1,0.7-0.4,0.4-1
			c-0.7-1.9-2.4-3-4.4-3c-2.6,0-4.7,2.2-4.7,4.8c0,2.7,2.1,4.8,4.7,4.8c1.9,0,3.6-1.2,4.4-3c0.2-0.4,0-0.9-0.4-1
			c-0.4-0.2-0.9,0-1,0.4c-0.5,1.2-1.6,2-2.9,2c-1.7,0-3.1-1.4-3.1-3.2s1.4-3.2,3.1-3.2C24.9,18.6,26,19.4,26.5,20.6z M37.6,21.1
			c-5,0-0.5,0-5.5,0c0.3-0.3,0.7-0.5,1-0.8c0.8-0.6-0.3-1.8-1-1.1c-1,0.8-1.9,1.5-2.9,2.3c-0.4,0.3-0.3,0.8,0,1.1
			c0.1,0.1,0.1,0.2,0.3,0.3c0.9,0.6,1.8,1.2,2.8,1.8c0.8,0.5,1.7-0.8,0.8-1.3c-0.4-0.2-0.7-0.4-1-0.7c5.1,0,0.6,0,5.6,0
			C38.5,22.7,38.6,21.1,37.6,21.1z"/>
	</g>
</g>
</svg>
