<?xml version="1.0" encoding="utf-8"?>
<!-- Generator: Adobe Illustrator 22.1.0, SVG Export Plug-In . SVG Version: 6.00 Build 0)  -->
<svg version="1.1" id="Слой_1" xmlns="http://www.w3.org/2000/svg" xmlns:xlink="http://www.w3.org/1999/xlink" x="0px" y="0px"
	 viewBox="0 0 54 54" style="enable-background:new 0 0 54 54;" xml:space="preserve">
<style type="text/css">
	.st0{fill:#E3072B;}
	.st1{fill:#FFFFFF;}
</style>
<text transform="matrix(1 0 0 1 297.6377 420.9449)" style="font-family:'MyriadPro-Regular'; font-size:12px;">CCCCCC</text>
<g>
	<g id="XMLID_2_">
		<path class="st0" d="M27,1.1C16.3,1.1,7.6,9.8,7.6,20.5c0,16.2,17.7,32.4,19.4,32.4c1.4,0,19.4-16.2,19.4-32.4
			C46.4,9.8,37.7,1.1,27,1.1z"/>
		<path class="st1" d="M27,54C24.2,54,6.5,37,6.5,20.5C6.5,9.2,15.7,0,27,0s20.5,9.2,20.5,20.5C47.5,37,29.3,54,27,54z M26.8,51.9
			L26.8,51.9L26.8,51.9z M27.2,51.9L27.2,51.9L27.2,51.9z M27,2.2c-10.1,0-18.4,8.2-18.4,18.4C8.6,35.1,24,50.3,27,51.8
			c2.6-1.6,18.4-16.4,18.4-31.3C45.4,10.4,37.1,2.2,27,2.2z"/>
	</g>
	<g>
		<path class="st1" d="M20.2,30.8l-4.1-17.1h4.1l1.3,7.1c0.4,2,0.7,4.2,1,6h0.1c0.3-1.9,0.7-3.9,1.1-6l1.4-7h4.1l1.4,7.2
			c0.4,2,0.7,3.8,0.9,5.7h0.1c0.3-1.9,0.6-3.9,1-5.9l1.4-7h3.9l-4.4,17.1h-4.2l-1.4-7.4c-0.3-1.7-0.6-3.3-0.8-5.3H27
			c-0.3,1.9-0.6,3.6-1,5.3l-1.6,7.4H20.2z"/>
	</g>
</g>
</svg>
