<?xml version="1.0" encoding="utf-8"?>
<!-- Generator: Adobe Illustrator 22.1.0, SVG Export Plug-In . SVG Version: 6.00 Build 0)  -->
<svg version="1.1" id="Слой_1" xmlns="http://www.w3.org/2000/svg" xmlns:xlink="http://www.w3.org/1999/xlink" x="0px" y="0px"
	 viewBox="0 0 54 54" style="enable-background:new 0 0 54 54;" xml:space="preserve">
<style type="text/css">
	.st0{fill:#1DBC0C;}
	.st1{fill:#FFFFFF;}
</style>
<text transform="matrix(1 0 0 1 297.6377 420.9449)" style="font-family:'MyriadPro-Regular'; font-size:12px;">CCCCCC</text>
<g id="XMLID_485_">
	<path class="st0" d="M27,1.1C16.3,1.1,7.6,9.8,7.6,20.5c0,16.2,17.7,32.4,19.4,32.4c1.4,0,19.4-16.2,19.4-32.4
		C46.4,9.8,37.7,1.1,27,1.1z"/>
	<path class="st1" d="M27,54C24.2,54,6.5,37,6.5,20.5C6.5,9.2,15.7,0,27,0s20.5,9.2,20.5,20.5C47.5,37,29.3,54,27,54z M26.8,51.9
		L26.8,51.9L26.8,51.9z M27.2,51.9L27.2,51.9L27.2,51.9z M27,2.2c-10.1,0-18.4,8.2-18.4,18.4C8.6,35.1,24,50.3,27,51.8
		c2.6-1.6,18.4-16.4,18.4-31.3C45.4,10.4,37.1,2.2,27,2.2z"/>
</g>
<path class="st1" d="M34.7,16.5h-0.3c-0.4,0-0.8,0.2-1,0.5c-0.4-1.1-1-2.3-1.3-2.8c-0.6-0.9-1.5-1.1-2.1-1.2c-0.9-0.1-4.9-0.1-5.8,0
	c-0.6,0.1-1.5,0.3-2.1,1.2c-0.4,0.5-0.9,1.7-1.3,2.8c-0.3-0.3-0.6-0.5-1-0.5h-0.3c-0.5,0-0.9,0.5-0.9,1v0.7c0,0.5,0.4,0.4,0.9,1.1
	h0.5c0,0-0.1,0.1-0.1,0.1C19.2,20,19,20.7,19,21.4v4.4c0,0.5,0.4,0.8,0.9,0.8h1.2c0.5,0,0.7-0.3,0.7-0.8v-0.6h10.5v0.6
	c0,0.5,0.2,0.8,0.7,0.8h1.2c0.5,0,0.9-0.3,0.9-0.8v-4.4c0-0.8-0.2-1.5-0.6-2.2c0-0.1-0.1-0.1-0.1-0.1h0.5c0.5-0.7,0.9-0.6,0.9-1.1
	v-0.7C35.6,17,35.2,16.5,34.7,16.5z M21.9,17l0.9-1.8c0.4-0.8,1.2-1.3,2.2-1.3h4.1c0.9,0,1.8,0.5,2.2,1.3l0.9,1.8
	c0.1,0.3-0.1,0.7-0.5,0.7h-9.2C22,17.7,21.7,17.3,21.9,17z M24.4,21.4c0,0.2-0.1,0.3-0.3,0.4c-0.1,0.1-0.3,0.1-0.4,0.1H22
	c-0.4,0-0.7-0.3-0.7-0.7v-0.4c0-0.4,0.3-0.7,0.7-0.7c0.1,0,0.1,0,0.2,0l1.7,0.4c0.3,0.1,0.5,0.4,0.5,0.7
	C24.4,21.3,24.4,21.3,24.4,21.4z M32.7,21.2c0,0.4-0.3,0.7-0.7,0.7h-1.7c-0.1,0-0.3,0-0.4-0.1c-0.1-0.1-0.2-0.2-0.3-0.4
	c0-0.1,0-0.1,0-0.2c0-0.3,0.2-0.6,0.5-0.7l1.7-0.4c0,0,0.1,0,0.2,0c0.4,0,0.7,0.3,0.7,0.7V21.2z"/>
</svg>
