<?xml version="1.0" encoding="utf-8"?>
<!-- Generator: Adobe Illustrator 22.1.0, SVG Export Plug-In . SVG Version: 6.00 Build 0)  -->
<svg version="1.1" id="Слой_1" xmlns="http://www.w3.org/2000/svg" xmlns:xlink="http://www.w3.org/1999/xlink" x="0px" y="0px"
	 viewBox="0 0 54 54" style="enable-background:new 0 0 54 54;" xml:space="preserve">
<style type="text/css">
	.st0{fill:#E3072B;}
	.st1{fill:#FFFFFF;}
</style>
<text transform="matrix(1 0 0 1 297.6377 420.9449)" style="font-family:'MyriadPro-Regular'; font-size:12px;">CCCCCC</text>
<g>
	<g id="XMLID_481_">
		<path class="st0" d="M27,3C17.1,3,9,11.1,9,21c0,15,16.4,30,18,30c1.2,0,18-15,18-30C45,11.1,36.9,3,27,3z"/>
		<path class="st1" d="M27,52C24.4,52,8,36.3,8,21C8,10.5,16.5,2,27,2s19,8.5,19,19C46,36.2,29.1,52,27,52z M26.8,50L26.8,50
			L26.8,50z M27.2,50L27.2,50L27.2,50z M27,4c-9.4,0-17,7.6-17,17c0,13.5,14.2,27.6,17,28.9c2.4-1.4,17-15.2,17-28.9
			C44,11.6,36.4,4,27,4z"/>
	</g>
	<path id="XMLID_474_" class="st1" d="M33.6,15.3H30c-0.8,0-1.1,0.8-1.1,1.6v3.9c0,0.8,0.4,1.3,1.1,1.3h0.7V27c0,0.1-0.1,0.1,0,0.2
		l1.1,1.1c0.1,0.1,0.1,0.1,0.2,0l1.2-1.1c0,0,0.1-0.1,0.1-0.2v-0.6c0-0.1,0-0.1-0.1-0.2l-0.6-0.6c0,0,0-0.1,0-0.1L33,25
		c0.1-0.1,0.1-0.4,0-0.5l-0.5-0.5c0,0,0-0.1,0-0.1l0.6-0.6c0.1,0,0.1-0.1,0.1-0.2v-0.9h0.5c0.8,0,1.4-0.5,1.4-1.3v-3.9
		C35,16.2,34.4,15.3,33.6,15.3z M31.9,20c-0.6,0-1.1-0.5-1.1-1.1c0-0.6,0.5-1.1,1.1-1.1c0.6,0,1.1,0.5,1.1,1.1
		C33.1,19.5,32.5,20,31.9,20z M27.6,20.8v-3.9c0-0.4-0.2-0.4,0-1H27c-0.1,0-0.3-0.2-0.4-0.2c-0.8,0-1.6,0-2.4,0.1
		c-0.6,0.1-1.4,0.3-1.9,1.1c-0.3,0.5-0.8,1.5-1.2,2.5c-0.2-0.3-0.6-0.5-0.9-0.5h-0.3c-0.4,0-0.8,0.4-0.8,0.9v0.6
		c0,0.5,0.4,0.4,0.8,1h0.4c0,0-0.1,0-0.1,0.1c-0.4,0.6-0.5,1.2-0.5,2v4c0,0.5,0.3,0.7,0.8,0.7h1.1c0.5,0,0.6-0.3,0.6-0.7V27h7.4
		v-3.7C27.6,23,27.6,22,27.6,20.8z M24.5,23.5c-0.1,0.3-0.3,0.5-0.6,0.5h-1.5c-0.4,0-0.7-0.3-0.7-0.6l0-0.4c0-0.4,0.3-0.7,0.7-0.7
		c0.1,0,0.1,0,0.2,0l1.5,0.4C24.4,22.8,24.6,23.1,24.5,23.5z"/>
</g>
</svg>
