<?xml version="1.0" encoding="utf-8"?>
<!-- Generator: Adobe Illustrator 22.1.0, SVG Export Plug-In . SVG Version: 6.00 Build 0)  -->
<svg version="1.1" id="Слой_1" xmlns="http://www.w3.org/2000/svg" xmlns:xlink="http://www.w3.org/1999/xlink" x="0px" y="0px"
	 viewBox="0 0 54 54" style="enable-background:new 0 0 54 54;" xml:space="preserve">
<style type="text/css">
	.st0{fill:#1DBC0C;}
	.st1{fill:#FFFFFF;}
</style>
<g>
	<g id="XMLID_34_">
		<path class="st0" d="M27,1.1C16.3,1.1,7.6,9.8,7.6,20.5c0,16.2,17.7,32.4,19.4,32.4c1.4,0,19.4-16.2,19.4-32.4
			C46.4,9.8,37.7,1.1,27,1.1z"/>
		<path class="st1" d="M27,54C24.2,54,6.5,37,6.5,20.5C6.5,9.2,15.7,0,27,0s20.5,9.2,20.5,20.5C47.5,37,29.3,54,27,54z M26.8,51.9
			L26.8,51.9L26.8,51.9z M27.2,51.9L27.2,51.9L27.2,51.9z M27,2.2c-10.1,0-18.4,8.2-18.4,18.4C8.6,35.1,24,50.3,27,51.8
			c2.6-1.6,18.4-16.4,18.4-31.3C45.4,10.4,37.1,2.2,27,2.2z"/>
	</g>
	<g>
		<path class="st1" d="M21.3,13.9c1.2-0.2,2.9-0.4,5.2-0.4c2.4,0,4.1,0.5,5.2,1.4c1.1,0.9,1.8,2.3,1.8,4S32.9,22,31.9,23
			c-1.3,1.2-3.3,1.8-5.6,1.8c-0.5,0-1,0-1.3-0.1v6.1h-3.8L21.3,13.9L21.3,13.9z M25.1,21.7c0.3,0.1,0.7,0.1,1.3,0.1
			c2.1,0,3.3-1,3.3-2.8c0-1.6-1.1-2.5-3-2.5c-0.8,0-1.3,0.1-1.6,0.2C25.1,16.7,25.1,21.7,25.1,21.7z"/>
	</g>
</g>
</svg>
