<?xml version="1.0" encoding="utf-8"?>
<!-- Generator: Adobe Illustrator 24.0.1, SVG Export Plug-In . SVG Version: 6.00 Build 0)  -->
<svg version="1.1" id="Слой_1" xmlns="http://www.w3.org/2000/svg" xmlns:xlink="http://www.w3.org/1999/xlink" x="0px" y="0px"
	 viewBox="0 0 273.7 147.3" style="enable-background:new 0 0 273.7 147.3;" xml:space="preserve">
<style type="text/css">
	.st0{fill:#202020;}
	.st1{fill-rule:evenodd;clip-rule:evenodd;fill:#E10830;}
	.st2{fill-rule:evenodd;clip-rule:evenodd;fill:#202020;}
	.st3{fill:#E10830;}
</style>
<g>
	<g>
		<g>
			<path class="st0" d="M5.5,84.5c-1.5,0-2.8-0.5-3.9-1.6C0.5,81.8,0,80.5,0,79V61.5c0-1.5,0.5-2.8,1.6-3.9C2.7,56.5,4,56,5.5,56H23
				c1.5,0,2.8,0.5,3.9,1.6c1.1,1.1,1.6,2.4,1.6,3.9v2.2h-5.3v-1.1c0-0.7-0.1-1.2-0.2-1.2c-0.1-0.1-0.5-0.1-1.2-0.1H6.6
				c-0.7,0-1.2,0-1.2,0.1c-0.1,0.1-0.1,0.5-0.1,1.2v15.2c0,0.7,0,1.2,0.1,1.2c0.1,0.1,0.5,0.1,1.2,0.1h15.2c0.7,0,1.1,0,1.2-0.1
				c0.1-0.1,0.2-0.5,0.2-1.2v-4.2h-6.5v-5.3h11.7V79c0,1.5-0.5,2.8-1.6,3.9c-1.1,1.1-2.4,1.6-3.9,1.6H5.5z"/>
			<path class="st0" d="M32.9,84.5V56h23c1.5,0,2.8,0.5,3.9,1.6c1.1,1.1,1.6,2.4,1.6,3.9v7.7c0,1.5-0.5,2.8-1.6,3.9
				c-1.1,1.1-2.4,1.6-3.9,1.6l-17.7,0v9.7H32.9z M39.5,69.5h15.2c0.7,0,1.1,0,1.2-0.1c0.1-0.1,0.2-0.5,0.2-1.2v-5.5
				c0-0.7-0.1-1.2-0.2-1.2c-0.1-0.1-0.5-0.1-1.2-0.1H39.5c-0.7,0-1.2,0-1.2,0.1c-0.1,0.1-0.1,0.5-0.1,1.2v5.5c0,0.7,0,1.1,0.1,1.2
				C38.3,69.4,38.7,69.5,39.5,69.5z"/>
			<path class="st0" d="M69.6,84.5c-1.5,0-2.8-0.5-3.9-1.6c-1.1-1.1-1.6-2.4-1.6-3.9v-2.2h5.2v1c0,0.7,0,1.2,0.1,1.2
				c0.1,0.1,0.5,0.1,1.2,0.1h15.2c0.7,0,1.2,0,1.2-0.1c0.1-0.1,0.1-0.5,0.1-1.2v-3.6c0-0.7,0-1.1-0.1-1.2c-0.1-0.1-0.5-0.1-1.2-0.1
				H69.6c-1.5,0-2.8-0.5-3.9-1.6c-1.1-1.1-1.6-2.4-1.6-3.9v-5.9c0-1.5,0.5-2.8,1.6-3.9c1.1-1.1,2.4-1.6,3.9-1.6h17.5
				c1.5,0,2.8,0.5,3.9,1.6c1.1,1.1,1.6,2.4,1.6,3.9v2.2h-5.3v-1c0-0.7,0-1.2-0.1-1.2c-0.1-0.1-0.5-0.1-1.2-0.1H70.7
				c-0.7,0-1.2,0-1.2,0.1c-0.1,0.1-0.1,0.5-0.1,1.2v3.6c0,0.7,0,1.1,0.1,1.2c0.1,0.1,0.5,0.1,1.2,0.1h16.4c1.5,0,2.8,0.5,3.9,1.6
				c1.1,1.1,1.6,2.4,1.6,3.9V79c0,1.5-0.5,2.8-1.6,3.9c-1.1,1.1-2.4,1.6-3.9,1.6H69.6z"/>
			<path class="st0" d="M114.4,84.5c-1.5,0-2.8-0.5-3.9-1.6c-1.1-1.1-1.6-2.4-1.6-3.9v-2.2h5.2v1c0,0.7,0,1.2,0.1,1.2
				c0.1,0.1,0.5,0.1,1.2,0.1h15.2c0.7,0,1.2,0,1.2-0.1c0.1-0.1,0.1-0.5,0.1-1.2v-3.6c0-0.7,0-1.1-0.1-1.2c-0.1-0.1-0.5-0.1-1.2-0.1
				h-16.4c-1.5,0-2.8-0.5-3.9-1.6c-1.1-1.1-1.6-2.4-1.6-3.9v-5.9c0-1.5,0.5-2.8,1.6-3.9c1.1-1.1,2.4-1.6,3.9-1.6h17.5
				c1.5,0,2.8,0.5,3.9,1.6c1.1,1.1,1.6,2.4,1.6,3.9v2.2h-5.3v-1c0-0.7,0-1.2-0.1-1.2c-0.1-0.1-0.5-0.1-1.2-0.1h-15.2
				c-0.7,0-1.2,0-1.2,0.1c-0.1,0.1-0.1,0.5-0.1,1.2v3.6c0,0.7,0,1.1,0.1,1.2c0.1,0.1,0.5,0.1,1.2,0.1h16.4c1.5,0,2.8,0.5,3.9,1.6
				c1.1,1.1,1.6,2.4,1.6,3.9V79c0,1.5-0.5,2.8-1.6,3.9c-1.1,1.1-2.4,1.6-3.9,1.6H114.4z"/>
			<path class="st0" d="M147,84.5c-1.5,0-2.8-0.5-3.9-1.6c-1.1-1.1-1.6-2.4-1.6-3.9V67c0-1.5,0.5-2.8,1.6-3.9
				c1.1-1.1,2.4-1.6,3.9-1.6h12.4c1.5,0,2.8,0.5,3.9,1.6c1.1,1.1,1.6,2.4,1.6,3.9v8.6h-18.1v2.3c0,0.7,0,1.2,0.1,1.2
				c0.1,0.1,0.5,0.1,1.2,0.1h16.7v5.2H147z M146.7,71h12.9v-2.9c0-0.7,0-1.2-0.1-1.2c-0.1-0.1-0.5-0.1-1.2-0.1h-10.2
				c-0.7,0-1.2,0-1.2,0.1c-0.1,0.1-0.1,0.5-0.1,1.2V71z"/>
			<path class="st0" d="M173.4,84.5c-1.5,0-2.8-0.5-3.9-1.6c-1.1-1.1-1.6-2.4-1.6-3.9V67c0-1.5,0.5-2.8,1.6-3.9
				c1.1-1.1,2.4-1.6,3.9-1.6h17.8v5.2h-16.7c-0.7,0-1.2,0-1.2,0.1c-0.1,0.1-0.1,0.5-0.1,1.2v9.8c0,0.7,0,1.2,0.1,1.2
				c0.1,0.1,0.5,0.1,1.2,0.1h16.7v5.2H173.4z"/>
			<path class="st0" d="M200.1,84.5c-1.5,0-2.8-0.5-3.9-1.6c-1.1-1.1-1.6-2.4-1.6-3.9V61.5h5.2v16.4c0,0.7,0,1.2,0.1,1.2
				c0.1,0.1,0.5,0.1,1.2,0.1h10.2c0.7,0,1.2,0,1.2-0.1c0.1-0.1,0.1-0.5,0.1-1.2V61.5h5.2V79c0,1.5-0.5,2.8-1.6,3.9
				c-1.1,1.1-2.4,1.6-3.9,1.6H200.1z"/>
			<path class="st0" d="M222.1,84.5V67c0-1.5,0.5-2.8,1.6-3.9c1.1-1.1,2.4-1.6,3.9-1.6h12.7v5.2h-11.6c-0.7,0-1.2,0-1.2,0.1
				c-0.1,0.1-0.1,0.5-0.1,1.2v16.4H222.1z"/>
			<path class="st0" d="M248.4,84.5c-1.5,0-2.8-0.5-3.9-1.6c-1.1-1.1-1.6-2.4-1.6-3.9V67c0-1.5,0.5-2.8,1.6-3.9
				c1.1-1.1,2.4-1.6,3.9-1.6h12.4c1.5,0,2.8,0.5,3.9,1.6c1.1,1.1,1.6,2.4,1.6,3.9v8.6h-18.1v2.3c0,0.7,0,1.2,0.1,1.2
				c0.1,0.1,0.5,0.1,1.2,0.1h16.7v5.2H248.4z M248.2,71h12.9v-2.9c0-0.7,0-1.2-0.1-1.2c-0.1-0.1-0.5-0.1-1.2-0.1h-10.2
				c-0.7,0-1.2,0-1.2,0.1c-0.1,0.1-0.1,0.5-0.1,1.2V71z"/>
		</g>
		<path class="st1" d="M178.9,119.2c-19.3,0-29.6-11.2-28.2-27.4h-13.6c-2.9,19.5,8.6,33.1,31.2,33.1c17.9,0,38.7-8.6,56.4-21.9
			C209.9,112.9,193.3,119.2,178.9,119.2z"/>
		<g>
			<path class="st2" d="M177.9,111.1c-12.1,0-19.9-5.2-22.6-13.5c1.9,11.1,11.1,18.4,26,18.3c19.5-0.1,41.2-13.6,55.5-23.8l-16.7,0
				C206.6,102.7,191.9,111.1,177.9,111.1z"/>
		</g>
		<path class="st1" d="M261.8,54.1c0.6-14.4-8.9-24.1-26.3-24.1c-14.9,0-32.2,7.2-46.9,18.3c12.2-8.3,26-13.5,38.1-13.5
			c14.7,0,23,7.8,23.6,19.4H261.8z"/>
		<g>
			<path class="st2" d="M234.2,26.3c14.9,0,24.6,6.1,28,15.8c-2.4-13-13.7-21.5-32.2-21.4c-24.1,0.1-51,15.9-68.6,27.9l20.6-0.1
				C198.8,36.2,217,26.3,234.2,26.3z"/>
		</g>
		<g id="XMLID_78_">
			
				<rect x="259.5" y="16.9" transform="matrix(0.9894 -0.1455 0.1455 0.9894 -0.215 38.6138)" class="st0" width="8.9" height="7.8"/>
		</g>
		<g id="XMLID_77_">
			<rect x="247.5" y="9" transform="matrix(0.9894 -0.1455 0.1455 0.9894 0.8743 36.6945)" class="st0" width="7.7" height="6.8"/>
		</g>
		<g id="XMLID_76_">
			<rect x="259.2" y="7.9" transform="matrix(0.9894 -0.1455 0.1455 0.9894 1.23 38.2922)" class="st0" width="6.4" height="5.6"/>
		</g>
		<g id="XMLID_75_">
			<rect x="262.3" y="0.7" transform="matrix(0.9894 -0.1455 0.1455 0.9894 2.4325 38.504)" class="st0" width="4.3" height="3.8"/>
		</g>
		<g id="XMLID_74_">
			<rect x="270.5" y="0.2" transform="matrix(0.9894 -0.1455 0.1455 0.9894 2.6729 39.5851)" class="st0" width="3" height="2.6"/>
		</g>
		<g id="XMLID_73_">
			
				<rect x="268.9" y="7.6" transform="matrix(0.9894 -0.1455 0.1455 0.9894 1.5044 39.5258)" class="st0" width="4.3" height="3.8"/>
		</g>
		
			<rect id="XMLID_72_" x="129.9" y="122.7" transform="matrix(0.9894 -0.1455 0.1455 0.9894 -16.9829 20.8899)" class="st3" width="8.9" height="7.8"/>
		
			<rect id="XMLID_71_" x="143.1" y="131.6" transform="matrix(0.9894 -0.1455 0.1455 0.9894 -18.0722 22.8092)" class="st3" width="7.7" height="6.8"/>
		
			<rect id="XMLID_70_" x="132.6" y="133.8" transform="matrix(0.9894 -0.1455 0.1455 0.9894 -18.428 21.2115)" class="st3" width="6.4" height="5.6"/>
		
			<rect id="XMLID_69_" x="131.6" y="142.8" transform="matrix(0.9894 -0.1455 0.1455 0.9894 -19.6304 20.9998)" class="st3" width="4.3" height="3.8"/>
		
			<rect id="XMLID_68_" x="124.8" y="144.5" transform="matrix(0.9894 -0.1455 0.1455 0.9894 -19.8709 19.9187)" class="st3" width="3" height="2.6"/>
		
			<rect id="XMLID_67_" x="125.1" y="136" transform="matrix(0.9894 -0.1455 0.1455 0.9894 -18.7023 19.978)" class="st3" width="4.3" height="3.8"/>
	</g>
</g>
</svg>
