<?xml version="1.0" encoding="utf-8"?>
<!-- Generator: Adobe Illustrator 22.1.0, SVG Export Plug-In . SVG Version: 6.00 Build 0)  -->
<svg version="1.1" id="Слой_1" xmlns="http://www.w3.org/2000/svg" xmlns:xlink="http://www.w3.org/1999/xlink" x="0px" y="0px"
	 viewBox="0 0 148 148" style="enable-background:new 0 0 148 148;" xml:space="preserve">
<style type="text/css">
	.st0{fill:#CCCCCC;}
	.st1{fill:#FFFFFF;}
</style>
<circle class="st0" cx="74" cy="74" r="74"/>
<g>
	<g>
		<path class="st1" d="M74,87.5c5.5,0,9.9-4.5,9.9-9.9s-4.5-9.9-9.9-9.9s-9.9,4.5-9.9,9.9S68.5,87.5,74,87.5z"/>
		<path class="st1" d="M43.9,60.8v32.7c0,2.8,2.3,5.1,5.1,5.1H99c2.8,0,5.1-2.3,5.1-5.1V60.8c0-2.8-2.3-5.1-5.1-5.1H49
			C46.1,55.7,43.9,58,43.9,60.8z M92.9,63.7c1.6,0,2.8,1.3,2.8,2.8c0,1.6-1.3,2.8-2.8,2.8c-1.5,0-2.8-1.3-2.8-2.8
			C90,64.9,91.3,63.7,92.9,63.7z M74,64c7.5,0,13.6,6.1,13.6,13.6S81.5,91.3,74,91.3s-13.6-6.1-13.6-13.6S66.4,64,74,64z"/>
		<path class="st1" d="M63.1,53.1c1,0,1.9-0.8,1.9-1.9s-0.9-1.9-1.9-1.9h-7.7c-1,0-1.9,0.8-1.9,1.9s0.8,1.9,1.9,1.9H63.1z"/>
	</g>
</g>
</svg>
